<mxfile host="app.diagrams.net" modified="2022-07-24T14:42:09.215Z" agent="5.0 (Windows NT 10.0; Win64; x64) AppleWebKit/537.36 (KHTML, like Gecko) Chrome/103.0.0.0 Safari/537.36" etag="VhK79jweSii39G0W7qXp" version="20.2.0" type="github">
  <diagram id="29aRrfpUoqdX_eaidiLU" name="Страница 1">
    <mxGraphModel dx="1038" dy="2917" grid="1" gridSize="10" guides="1" tooltips="1" connect="1" arrows="1" fold="1" page="1" pageScale="1" pageWidth="827" pageHeight="1169" math="0" shadow="0">
      <root>
        <mxCell id="0" />
        <mxCell id="1" parent="0" />
        <mxCell id="pYau3k7I2MAjQEHZCgY2-31" value="Hotel" style="swimlane;childLayout=stackLayout;horizontal=1;startSize=30;horizontalStack=0;rounded=1;fontSize=14;fontStyle=0;strokeWidth=2;resizeParent=0;resizeLast=1;shadow=0;dashed=0;align=center;" vertex="1" parent="1">
          <mxGeometry x="130" y="-1130" width="160" height="210" as="geometry" />
        </mxCell>
        <mxCell id="pYau3k7I2MAjQEHZCgY2-32" value="+ id&#xa;+ name&#xa;+ city&#xa;+ address&#xa;+ phone number&#xa;+ number of reviews&#xa;+ rating&#xa;+ description&#xa;+ payment&#xa;+ prepayment&#xa;+ refund&#xa;+ donation" style="align=left;strokeColor=none;fillColor=none;spacingLeft=4;fontSize=12;verticalAlign=top;resizable=0;rotatable=0;part=1;" vertex="1" parent="pYau3k7I2MAjQEHZCgY2-31">
          <mxGeometry y="30" width="160" height="180" as="geometry" />
        </mxCell>
        <mxCell id="pYau3k7I2MAjQEHZCgY2-33" value="RoomCondition" style="swimlane;childLayout=stackLayout;horizontal=1;startSize=30;horizontalStack=0;rounded=1;fontSize=14;fontStyle=0;strokeWidth=2;resizeParent=0;resizeLast=1;shadow=0;dashed=0;align=center;" vertex="1" parent="1">
          <mxGeometry x="450" y="-1370" width="160" height="60" as="geometry" />
        </mxCell>
        <mxCell id="pYau3k7I2MAjQEHZCgY2-34" value="+ name" style="align=left;strokeColor=none;fillColor=none;spacingLeft=4;fontSize=12;verticalAlign=top;resizable=0;rotatable=0;part=1;" vertex="1" parent="pYau3k7I2MAjQEHZCgY2-33">
          <mxGeometry y="30" width="160" height="30" as="geometry" />
        </mxCell>
        <mxCell id="pYau3k7I2MAjQEHZCgY2-35" value="Room" style="swimlane;childLayout=stackLayout;horizontal=1;startSize=30;horizontalStack=0;rounded=1;fontSize=14;fontStyle=0;strokeWidth=2;resizeParent=0;resizeLast=1;shadow=0;dashed=0;align=center;" vertex="1" parent="1">
          <mxGeometry x="100" y="-1370" width="160" height="140" as="geometry" />
        </mxCell>
        <mxCell id="pYau3k7I2MAjQEHZCgY2-36" value="+ id&#xa;+ hotel_id&#xa;+ type&#xa;+ name&#xa;+ number of people&#xa;+ price&#xa;+ description" style="align=left;strokeColor=none;fillColor=none;spacingLeft=4;fontSize=12;verticalAlign=top;resizable=0;rotatable=0;part=1;" vertex="1" parent="pYau3k7I2MAjQEHZCgY2-35">
          <mxGeometry y="30" width="160" height="110" as="geometry" />
        </mxCell>
        <mxCell id="pYau3k7I2MAjQEHZCgY2-37" value="Book" style="swimlane;childLayout=stackLayout;horizontal=1;startSize=30;horizontalStack=0;rounded=1;fontSize=14;fontStyle=0;strokeWidth=2;resizeParent=0;resizeLast=1;shadow=0;dashed=0;align=center;" vertex="1" parent="1">
          <mxGeometry x="400" y="-1210" width="160" height="100" as="geometry" />
        </mxCell>
        <mxCell id="pYau3k7I2MAjQEHZCgY2-38" value="+ id&#xa;+ room_id&#xa;+ check_in&#xa;+ check_out" style="align=left;strokeColor=none;fillColor=none;spacingLeft=4;fontSize=12;verticalAlign=top;resizable=0;rotatable=0;part=1;" vertex="1" parent="pYau3k7I2MAjQEHZCgY2-37">
          <mxGeometry y="30" width="160" height="70" as="geometry" />
        </mxCell>
        <mxCell id="pYau3k7I2MAjQEHZCgY2-57" value="City" style="swimlane;childLayout=stackLayout;horizontal=1;startSize=30;horizontalStack=0;rounded=1;fontSize=14;fontStyle=0;strokeWidth=2;resizeParent=0;resizeLast=1;shadow=0;dashed=0;align=center;" vertex="1" parent="1">
          <mxGeometry x="360" y="-980" width="160" height="100" as="geometry" />
        </mxCell>
        <mxCell id="pYau3k7I2MAjQEHZCgY2-58" value="+ id&#xa;+ name &#xa;+ country &#xa;+ popularity" style="align=left;strokeColor=none;fillColor=none;spacingLeft=4;fontSize=12;verticalAlign=top;resizable=0;rotatable=0;part=1;" vertex="1" parent="pYau3k7I2MAjQEHZCgY2-57">
          <mxGeometry y="30" width="160" height="70" as="geometry" />
        </mxCell>
        <mxCell id="pYau3k7I2MAjQEHZCgY2-61" value="" style="edgeStyle=entityRelationEdgeStyle;fontSize=12;html=1;endArrow=ERmany;rounded=0;" edge="1" parent="1" target="pYau3k7I2MAjQEHZCgY2-32">
          <mxGeometry width="100" height="100" relative="1" as="geometry">
            <mxPoint x="520" y="-920" as="sourcePoint" />
            <mxPoint x="620" y="-1020" as="targetPoint" />
          </mxGeometry>
        </mxCell>
        <mxCell id="pYau3k7I2MAjQEHZCgY2-63" value="" style="edgeStyle=entityRelationEdgeStyle;fontSize=12;html=1;endArrow=ERzeroToMany;startArrow=ERmandOne;rounded=0;entryX=0;entryY=0.5;entryDx=0;entryDy=0;exitX=1;exitY=0.5;exitDx=0;exitDy=0;" edge="1" parent="1" source="pYau3k7I2MAjQEHZCgY2-36" target="pYau3k7I2MAjQEHZCgY2-38">
          <mxGeometry width="100" height="100" relative="1" as="geometry">
            <mxPoint x="260" y="-1260" as="sourcePoint" />
            <mxPoint x="360" y="-1360" as="targetPoint" />
          </mxGeometry>
        </mxCell>
        <mxCell id="pYau3k7I2MAjQEHZCgY2-71" value="" style="edgeStyle=entityRelationEdgeStyle;fontSize=12;html=1;endArrow=ERoneToMany;startArrow=ERzeroToMany;rounded=0;exitX=1;exitY=0.25;exitDx=0;exitDy=0;entryX=0;entryY=0.25;entryDx=0;entryDy=0;" edge="1" parent="1" source="pYau3k7I2MAjQEHZCgY2-36" target="pYau3k7I2MAjQEHZCgY2-33">
          <mxGeometry width="100" height="100" relative="1" as="geometry">
            <mxPoint x="340" y="-1260" as="sourcePoint" />
            <mxPoint x="440" y="-1360" as="targetPoint" />
          </mxGeometry>
        </mxCell>
        <mxCell id="pYau3k7I2MAjQEHZCgY2-72" value="" style="edgeStyle=entityRelationEdgeStyle;fontSize=12;html=1;endArrow=ERzeroToMany;endFill=1;rounded=0;exitX=0.688;exitY=-0.003;exitDx=0;exitDy=0;exitPerimeter=0;entryX=0.5;entryY=1;entryDx=0;entryDy=0;" edge="1" parent="1" source="pYau3k7I2MAjQEHZCgY2-31" target="pYau3k7I2MAjQEHZCgY2-36">
          <mxGeometry width="100" height="100" relative="1" as="geometry">
            <mxPoint x="360" y="-1030" as="sourcePoint" />
            <mxPoint x="460" y="-1130" as="targetPoint" />
          </mxGeometry>
        </mxCell>
      </root>
    </mxGraphModel>
  </diagram>
</mxfile>
